<?xml version="1.0" encoding="iso-8859-1"?>
<!-- Generator: Adobe Illustrator 19.0.0, SVG Export Plug-In . SVG Version: 6.00 Build 0)  -->
<svg version="1.1" id="Layer_1" xmlns="http://www.w3.org/2000/svg" xmlns:xlink="http://www.w3.org/1999/xlink" x="0px" y="0px"
	 viewBox="0 0 505 505" style="enable-background:new 0 0 505 505;" xml:space="preserve">
<circle style="fill:#4CDBC4;" cx="252.5" cy="252.5" r="252.5"/>
<g>
	<path style="fill:#FFFFFF;" d="M154.7,241.7h22.9c5.8-34.6,33.9-61.7,69-65.9V153C199,157.4,160.8,194.5,154.7,241.7z"/>
	<path style="fill:#FFFFFF;" d="M176.8,261.2H154c3,50.6,42.6,91.2,92.6,95.9v-22.9C209.2,329.7,179.7,299.1,176.8,261.2z"/>
	<path style="fill:#FFFFFF;" d="M336,261.2c-2.9,38-32.3,68.5-69.8,73v22.9c50-4.7,89.6-45.4,92.6-95.9H336z"/>
</g>
<path style="fill:#FF7058;" d="M358,241.7c-6.1-47.2-44.2-84.3-91.9-88.8v22.8v60.1v5.9h69L358,241.7L358,241.7z"/>
<g>
	<polygon style="fill:#FFFFFF;" points="375.9,133.6 340.7,168.7 350.5,178.5 381.6,147.4 428.6,147.4 428.6,133.6 	"/>
	<polygon style="fill:#FFFFFF;" points="124.7,357.6 76.4,357.6 76.4,371.4 130.4,371.4 159.6,342.2 149.8,332.4 	"/>
	
		<rect x="133.367" y="158.91" transform="matrix(0.7071 0.7071 -0.7071 0.7071 161.0733 -57.1447)" style="fill:#FFFFFF;" width="32.3" height="13.9"/>
	
		<rect x="334.159" y="341.846" transform="matrix(0.7071 0.7071 -0.7071 0.7071 349.2686 -145.6168)" style="fill:#FFFFFF;" width="32.5" height="13.9"/>
</g>
<g>
</g>
<g>
</g>
<g>
</g>
<g>
</g>
<g>
</g>
<g>
</g>
<g>
</g>
<g>
</g>
<g>
</g>
<g>
</g>
<g>
</g>
<g>
</g>
<g>
</g>
<g>
</g>
<g>
</g>
</svg>
